<?xml version="1.0" ?><svg height="48" viewBox="0 0 48 48" width="48" xmlns="http://www.w3.org/2000/svg"><defs><style>.cls-1{fill:#f1f2f2;}.cls-2{fill:none;stroke:#474c54;stroke-linecap:round;stroke-linejoin:round;stroke-width:2px;}.cls-3{fill:#fa5c66;}.cls-4{fill:#49aaee;}.cls-5{fill:#fed049;}.cls-6{fill:#35dc86;}</style></defs><title/><g data-name="29-Slack" id="_29-Slack"><g data-name="&lt;Group&gt;" id="_Group_"><circle class="cls-1" cx="24" cy="24" r="23"/><circle class="cls-2" cx="24" cy="24" r="23"/></g><g data-name="&lt;Group&gt;" id="_Group_2"><rect class="cls-3" height="6.001" transform="matrix(0.94, -0.342, 0.342, 0.94, -7.693, 12.183)" width="6.001" x="27.744" y="24.934"/><rect class="cls-4" height="6.001" transform="matrix(0.94, -0.342, 0.342, 0.94, -4.086, 10.108)" width="6.001" x="23.654" y="13.654"/><rect class="cls-3" height="6.001" transform="matrix(0.94, -0.342, 0.342, 0.94, -9.596, 8.877)" width="6.001" x="17.404" y="28.684"/><rect class="cls-4" height="6.001" transform="matrix(0.94, -0.342, 0.342, 0.94, -5.989, 6.801)" width="6.001" x="13.314" y="17.404"/><polygon class="cls-5" points="30.5 18.45 32.54 24.09 26.9 26.14 24.86 20.5 30.5 18.45"/><polygon class="cls-6" points="20.16 22.2 22.2 27.84 16.56 29.89 14.52 24.25 20.16 22.2"/><path class="cls-6" d="M25.27,36.3a3,3,0,1,1-5.64,2.05l-1.02-2.82,5.64-2.05Z"/><path class="cls-6" d="M17.09,13.74l1.02,2.82-5.64,2.05-1.02-2.82a3,3,0,0,1,5.64-2.05Z"/><path class="cls-3" d="M40.15,24.52a3.012,3.012,0,0,1-1.8,3.85l-3.76,1.36-2.05-5.64,3.76-1.36A3.007,3.007,0,0,1,40.15,24.52Z"/><polygon class="cls-3" points="26.9 26.14 28.95 31.78 24.25 33.48 22.2 27.84 26.9 26.14"/><path class="cls-3" d="M16.56,29.89l2.05,5.64-2.82,1.02a3,3,0,0,1-2.05-5.64Z"/><polygon class="cls-4" points="22.81 14.86 24.86 20.5 20.16 22.2 18.11 16.56 22.81 14.86"/><path class="cls-4" d="M36.05,13.24a3.007,3.007,0,0,1-1.79,3.85L30.5,18.45l-2.05-5.64,3.76-1.36A2.992,2.992,0,0,1,36.05,13.24Z"/><path class="cls-4" d="M12.47,18.61l2.05,5.64L11.7,25.27a3,3,0,1,1-2.05-5.64Z"/><path class="cls-5" d="M35.61,32.55a3,3,0,0,1-5.64,2.05l-1.02-2.82,5.64-2.05Z"/><path class="cls-5" d="M27.43,9.99l1.02,2.82-5.64,2.05-1.02-2.82a3,3,0,1,1,5.64-2.05Z"/><path class="cls-2" d="M30.5,18.45l3.76-1.36a3,3,0,0,0-2.05-5.64l-3.76,1.36-5.64,2.05-4.7,1.7-5.64,2.05L9.65,19.63a3,3,0,1,0,2.05,5.64l2.82-1.02,5.64-2.05,4.7-1.7Z"/><path class="cls-2" d="M34.59,29.73l3.76-1.36a3,3,0,1,0-2.05-5.64l-3.76,1.36L26.9,26.14l-4.7,1.7-5.64,2.05-2.82,1.02a3,3,0,0,0,2.05,5.64l2.82-1.02,5.64-2.05,4.7-1.7Z"/><path class="cls-2" d="M18.11,16.56l-1.02-2.82a3,3,0,0,0-5.64,2.05l1.02,2.82,2.05,5.64,2.04,5.64,2.05,5.64,1.02,2.82a3,3,0,1,0,5.64-2.05l-1.02-2.82L22.2,27.84,20.16,22.2Z"/><path class="cls-2" d="M28.45,12.81,27.43,9.99a3,3,0,1,0-5.64,2.05l1.02,2.82,2.05,5.64,2.04,5.64,2.05,5.64,1.02,2.82a3,3,0,0,0,5.64-2.05l-1.02-2.82-2.05-5.64L30.5,18.45Z"/></g></g></svg>